<svg version="1.1" id="Layer_1" xmlns="http://www.w3.org/2000/svg"
    xmlns:xlink="http://www.w3.org/1999/xlink" x="0px" y="0px"
    width="100%" viewBox="0 0 400 400" enable-background="new 0 0 400 400" xml:space="preserve">
<path fill="#000000" opacity="1.000000" stroke="none" 
	d="
M59.946793,294.301178 
	C44.839554,289.542053 35.283997,279.423981 29.867224,265.342255 
	C22.253073,245.548096 23.996441,220.678268 39.669548,206.514908 
	C45.259380,201.463516 51.549000,197.702255 59.336670,196.435150 
	C70.809761,194.568359 81.561043,189.835526 92.846642,187.125763 
	C93.781311,186.901352 94.739143,186.425842 95.177002,185.263214 
	C94.798073,183.082184 92.701645,182.891357 91.158310,182.118637 
	C81.779861,177.422882 72.479851,172.550797 62.947708,168.187500 
	C54.404388,164.276840 51.478336,157.323608 50.672523,148.659515 
	C49.362061,134.569458 54.737480,122.526237 62.190166,111.270721 
	C68.551231,101.663834 76.514114,93.320816 84.730553,85.258141 
	C91.995239,78.129402 95.583603,77.476906 104.719246,81.613838 
	C123.511948,90.123802 141.710938,99.873154 160.387924,108.593918 
	C181.327942,118.371361 201.880051,128.922333 222.731018,138.868408 
	C226.219650,140.532501 229.491455,140.490723 232.782486,139.233887 
	C238.382843,137.095139 244.321960,135.910904 249.821915,133.724686 
	C258.421539,130.306366 265.083771,133.220840 271.321075,138.524033 
	C277.948822,144.159241 283.438599,150.872452 288.421967,157.983109 
	C290.475891,160.913818 291.595795,164.230148 291.442169,167.835388 
	C291.300171,171.167603 293.019104,172.943939 295.845978,174.313492 
	C320.390106,186.204605 344.774109,198.436050 369.486633,209.964157 
	C377.719879,213.804871 379.532349,217.892197 377.740875,228.698685 
	C377.443573,230.491821 376.372559,232.253830 376.447144,233.996490 
	C377.206482,251.740448 369.008942,266.390991 360.390808,280.874603 
	C355.890656,288.437500 351.457275,296.085602 344.384521,301.714844 
	C340.227295,305.023590 336.259644,305.207275 331.553741,302.465698 
	C316.428864,293.654053 299.862091,287.797028 284.311066,279.842194 
	C273.221985,274.169830 262.266388,268.234100 251.133942,262.649689 
	C240.590683,257.360870 229.890350,252.385498 219.269699,247.250320 
	C217.349548,246.321915 215.549835,246.296356 213.524338,247.124741 
	C197.231400,253.788086 180.893280,260.340851 164.591095,266.981781 
	C147.199539,274.066467 129.823868,281.190338 112.457947,288.337646 
	C104.639679,291.555420 96.911392,294.960571 88.856209,297.618378 
	C83.398521,299.419189 78.170822,299.831635 72.787056,297.821564 
	C68.735085,296.308685 64.251411,296.384827 59.946793,294.301178 
M219.933075,152.606781 
	C205.994995,145.926453 192.030655,139.300247 178.124557,132.553986 
	C152.842972,120.289146 127.593742,107.957611 102.337173,95.641258 
	C98.763618,93.898613 95.771736,94.264900 92.940697,97.342766 
	C86.732452,104.092293 80.427094,110.761177 75.735252,118.702003 
	C70.379265,127.766891 67.266319,137.422470 68.257935,148.167511 
	C68.498390,150.772949 69.272865,152.479843 71.676300,153.678162 
	C82.830353,159.239319 93.892342,164.985275 105.050652,170.537735 
	C125.306099,180.617020 145.642639,190.533646 165.878006,200.652832 
	C186.249710,210.840225 206.506317,221.257690 226.875504,231.450195 
	C243.529205,239.783524 260.295044,247.892471 276.973389,256.176941 
	C295.284912,265.272675 313.559784,274.442200 331.834198,283.612396 
	C335.178802,285.290771 337.359802,284.688110 339.868835,281.561829 
	C353.040588,265.149689 360.192627,246.318359 363.373352,225.740646 
	C363.764160,223.212234 362.511261,221.963104 360.632111,221.026123 
	C356.765717,219.098175 352.835693,217.298355 348.948364,215.411758 
	C329.644226,206.043121 310.339661,196.675323 291.046295,187.284561 
	C267.559570,175.852737 244.083862,164.398300 219.933075,152.606781 
M150.582352,213.015686 
	C140.171722,207.796371 129.768326,202.562515 119.344635,197.369400 
	C117.123161,196.262650 114.862953,194.794449 112.257042,195.525742 
	C104.282104,197.763702 96.336700,200.110458 88.410347,202.515564 
	C86.332901,203.145905 85.238091,204.353409 85.638306,206.993195 
	C86.484283,212.573120 83.206596,215.489426 77.744049,214.293488 
	C74.666473,213.619705 71.659012,212.632294 68.598068,211.874588 
	C59.003967,209.499649 50.497223,213.359451 46.274391,222.341171 
	C42.166416,231.078583 41.276588,240.001785 43.077930,249.782196 
	C47.244400,272.404114 61.927605,280.220642 80.707863,280.593048 
	C83.174973,280.641968 85.005127,279.216766 86.692200,277.444305 
	C93.224503,270.581238 94.150780,261.281555 97.419899,253.007141 
	C97.671165,252.371170 97.297684,251.348618 96.946022,250.638809 
	C95.555092,247.831314 95.489220,244.837433 95.669647,241.843384 
	C95.956108,237.089676 95.979408,232.677933 91.129044,229.655289 
	C89.475418,228.624817 88.598480,226.218979 87.582474,224.325760 
	C86.197571,221.745148 86.270737,219.038177 88.336975,216.901657 
	C90.306091,214.865585 92.876900,214.351730 95.711617,215.144241 
	C101.090782,216.648087 105.453796,222.868637 105.031281,228.944183 
	C104.920952,230.530685 104.817574,231.679733 106.179718,232.899734 
	C110.996292,237.213730 112.150169,242.587112 110.336609,248.726105 
	C109.679642,250.949997 108.746437,253.280426 109.510849,255.571686 
	C110.753128,259.295258 110.068176,262.784760 108.887177,266.304901 
	C108.466408,267.559021 107.934395,268.827698 109.361031,270.270477 
	C137.457642,259.473877 165.143951,247.392227 193.085052,235.918457 
	C193.073639,235.359070 193.062225,234.799683 193.050812,234.240295 
	C179.120453,227.270187 165.190079,220.300079 150.582352,213.015686 
M259.891998,149.663376 
	C256.573822,147.259781 253.264206,147.403946 248.924789,149.972733 
	C255.791122,153.784225 262.073395,156.919830 269.328613,159.662430 
	C267.734741,154.295471 263.740875,152.542969 259.891998,149.663376 
z"/>
</svg>