<svg
className="dark:invert"
version="1.1"
id="oi"
xmlns="http://www.w3.org/2000/svg"
x="0px"
y="0px"
viewBox="0 0 560 352"
enableBackground="new 0 0 560 352"
>
<path
  fill="#000000"
  opacity="1.000000"
  stroke="#000000"
  d="
M74.394020,311.875000 
C49.256298,302.604218 38.297970,283.119415 33.553112,258.594635 
C30.315071,241.858215 34.193619,226.765945 42.268806,212.284363 
C44.901512,207.563019 47.771278,203.248154 52.953472,200.888977 
C58.217358,198.492569 61.996155,193.397736 67.997261,192.314835 
C94.364670,187.556870 119.364136,177.777512 145.255417,171.270035 
C146.926163,170.850098 148.939438,170.702881 150.107056,168.784073 
C149.549026,166.532135 147.342255,166.198624 145.674377,165.389755 
C123.069954,154.427673 100.450150,143.496933 77.793030,132.644287 
C74.305443,130.973740 72.659805,128.240540 71.663902,124.692154 
C66.510406,106.330284 70.983727,89.888252 80.463844,73.882599 
C90.189354,57.462654 103.699417,44.447060 116.733154,30.960863 
C122.875626,24.605164 128.267624,24.195263 136.138306,27.907162 
C174.209518,45.861996 212.337082,63.697334 250.413574,81.641014 
C271.184814,91.429535 291.914307,101.307388 312.610962,111.252571 
C315.915710,112.840569 318.695007,113.094986 322.392456,111.793488 
C334.588623,107.500443 346.956543,103.684853 359.471863,100.349068 
C363.357941,99.313286 366.284302,100.332001 369.289246,102.285500 
C379.446625,108.888733 388.139130,116.967102 394.859772,127.143608 
C397.499847,131.141251 402.416290,133.735870 401.983154,139.560715 
C401.824677,141.691864 402.944977,144.231354 402.132141,145.943878 
C399.302917,151.904572 402.901703,153.594971 407.327698,155.656036 
C439.903534,170.825684 472.409882,186.144623 504.931793,201.429916 
C512.006836,204.755188 519.053955,208.139893 526.119446,211.485504 
C528.338623,212.536285 530.322876,213.754761 529.675049,216.708984 
C526.653809,230.484314 527.127197,244.799820 523.036560,258.427002 
C519.322998,270.798035 513.391174,282.100281 506.823730,293.091583 
C502.662537,300.055847 498.360504,306.957642 493.151459,313.234161 
C491.883453,314.761993 490.929535,316.546112 489.749939,318.152710 
C487.441864,321.296173 484.108429,323.336243 481.119019,325.681091 
C476.881836,329.004639 474.170990,324.295868 470.994354,322.929077 
C463.208740,319.579041 455.842529,315.228394 447.995422,312.051422 
C406.476746,295.242340 367.458832,273.169678 326.734833,254.696365 
C319.611969,251.465271 312.671997,247.829346 305.666077,244.343201 
C303.644196,243.337128 301.759094,242.909073 299.489960,243.890732 
C270.006287,256.645844 239.808182,267.619812 210.044586,279.682404 
C180.133087,291.804901 150.114227,303.665222 120.069717,315.455200 
C111.480179,318.825897 102.815796,320.656738 93.488121,316.869995 
C87.577522,314.470459 80.822342,314.392975 74.394020,311.875000 
M249.204742,84.381805 
C238.799637,79.512001 228.385773,74.660843 217.991119,69.768837 
C189.367020,56.297550 160.751419,42.808277 132.130676,29.329863 
C130.459106,28.542669 128.781952,27.720209 126.945686,28.932411 
C123.476830,31.222355 119.797607,33.210224 116.845856,36.227283 
C105.435410,47.890202 94.619278,59.836720 86.804619,74.516617 
C78.885246,89.393250 75.400406,104.486557 78.630707,121.071785 
C79.254776,124.275978 80.751816,126.427116 83.824005,127.786453 
C89.303558,130.210938 94.655457,132.925079 100.050499,135.539230 
C156.098495,162.697083 212.146790,189.854294 268.190369,217.021255 
C336.220276,249.998550 404.247467,282.981445 472.270233,315.973450 
C478.708221,319.096008 479.551147,319.186188 483.947418,313.626801 
C495.855743,298.567780 506.317902,282.540009 513.740540,264.782288 
C519.678101,250.577438 521.409180,235.208130 525.001343,220.351395 
C526.111450,215.760101 524.631958,213.867249 520.654846,212.033920 
C498.578918,201.857620 476.610687,191.447311 454.621887,181.082520 
C424.647797,166.953735 394.702545,152.763641 364.719055,138.654831 
C326.451172,120.647766 288.157501,102.695534 249.204742,84.381805 
M90.495865,195.629150 
C85.530693,194.598953 80.525993,195.300522 75.547417,195.380875 
C63.930492,195.568329 54.916706,201.043152 49.263893,210.805008 
C40.110134,226.612625 36.713039,243.634399 41.840611,261.654816 
C45.746243,275.380920 50.575550,288.495331 62.902061,297.454529 
C73.548065,305.192322 85.729546,308.086304 98.304535,309.765228 
C107.517136,310.995209 116.365814,310.290649 120.967743,300.143311 
C121.102829,299.845428 121.352280,299.600830 121.537735,299.324219 
C122.461571,297.946259 123.627869,296.974670 125.251648,298.098969 
C126.703178,299.104004 125.958725,300.395111 125.406425,301.657104 
C125.050652,302.470062 123.783340,303.029480 124.767410,304.606171 
C180.076920,282.537994 235.431656,260.451721 291.351990,238.139816 
C290.124878,237.306030 289.630737,236.873459 289.060883,236.596832 
C244.882538,215.148117 200.697708,193.712708 156.516388,172.270081 
C154.827133,171.450226 153.258148,171.115265 151.279724,171.718475 
C138.079361,175.743179 124.821404,179.578415 111.597435,183.526382 
C104.198395,185.735367 96.828682,188.042603 89.126755,190.403336 
C93.169617,195.998062 102.794914,191.828369 104.127441,200.608231 
C99.840660,198.892258 95.051132,198.900711 90.495865,195.629150 
M378.670441,115.830643 
C374.839081,112.897820 371.025055,109.942032 367.171326,107.038887 
C363.617920,104.361977 359.897461,103.610115 355.463104,105.127472 
C347.446320,107.870651 339.255524,110.101562 331.187225,112.701004 
C329.413055,113.272606 327.136383,113.089722 325.753571,115.674072 
C349.088745,126.667587 372.319000,137.611679 396.069275,148.800735 
C396.146973,142.521713 396.080414,137.039780 392.532440,132.432480 
C388.278046,126.907875 384.493988,120.977425 378.670441,115.830643 
z"
/>
<path
  fill="#000000"
  opacity="1.000000"
  stroke="none"
  d="
M135.765533,268.108643 
C136.590851,266.342468 137.867752,265.368103 138.557724,267.373016 
C140.937653,274.288513 135.428741,290.206604 129.332901,294.648163 
C128.875977,294.981110 128.134445,294.923401 126.862251,295.182098 
C126.610291,289.799713 130.265320,286.095520 131.327209,281.617523 
C132.389236,277.139008 134.198196,272.837585 135.765533,268.108643 
z"
/>
<path
  fill="#000000"
  opacity="1.000000"
  stroke="none"
  d="
M134.586929,245.313538 
C135.012024,242.679214 133.084091,240.424606 134.772217,238.074173 
C137.736298,238.140503 138.452072,240.758514 139.258423,242.586777 
C141.180557,246.944931 140.606644,251.619049 139.840988,256.183350 
C139.654739,257.293671 138.972351,258.473999 137.580017,258.462158 
C136.083511,258.449432 135.848022,257.243958 135.699738,256.032806 
C135.280960,252.612915 134.249161,249.259888 134.586929,245.313538 
z"
/>
<path
  fill="#000000"
  opacity="1.000000"
  stroke="none"
  d="
M129.038757,227.170013 
C125.482826,224.805344 123.546059,221.385864 120.836357,218.700226 
C119.680405,217.554535 119.236343,216.071075 120.424568,214.682114 
C121.588890,213.321075 122.961250,214.077530 123.987450,214.872894 
C127.639221,217.703262 131.495422,220.442978 132.455505,225.419373 
C133.058273,228.543716 131.483429,228.455658 129.038757,227.170013 
z"
/>
</svg>